<svg xmlns="http://www.w3.org/2000/svg" xmlns:xlink="http://www.w3.org/1999/xlink" width="374" height="95" viewBox="0 0 374 95"><defs><path id="a" d="M.28.637h37.718v57.226H.28z"/><path id="c" d="M.076.637h17.43v18.208H.076z"/><path id="e" d="M.112.101h23.676V24H.112z"/><path id="g" d="M0 .093h17.24v29.855H0z"/></defs><g fill="none" fill-rule="evenodd"><g transform="translate(26 .363)"><mask id="b" fill="#fff"><use xlink:href="#a"/></mask><path fill="#F48120" d="m35.535.644-.143-.007H2.88a2.604 2.604 0 0 0-2.6 2.599v13.009c0 1.432 1.167 2.6 2.6 2.6h14.075a.184.184 0 0 0 .184-.186v-2.414c0-.803.192-1.61.552-2.334a.183.183 0 0 0-.166-.268H5.482V5.837H32.8V52.66h-2.394a.187.187 0 0 0-.187.186v4.83c0 .1.083.186.187.186h4.992c1.434 0 2.6-1.165 2.6-2.6V3.237A2.594 2.594 0 0 0 35.535.644" mask="url(#b)"/></g><g transform="translate(66 .363)"><mask id="d" fill="#fff"><use xlink:href="#c"/></mask><path fill="#7ED2F6" d="M14.908.637H.261a.184.184 0 0 0-.156.088.178.178 0 0 0-.009.18c.361.725.55 1.53.55 2.33v2.417c0 .102.083.184.186.184h11.472v7.809H.832a.185.185 0 0 0-.186.185v4.828c0 .104.083.187.186.187h14.076a2.602 2.602 0 0 0 2.598-2.601V3.236a2.601 2.601 0 0 0-2.598-2.6" mask="url(#d)"/></g><path fill="#7ED2F6" d="M55.964 14.009H48.39a2.605 2.605 0 0 0-2.602 2.599v39.02a2.604 2.604 0 0 0 2.602 2.599h4.995a.188.188 0 0 0 .186-.187v-4.83a.188.188 0 0 0-.186-.185h-2.391V19.208h4.97a.184.184 0 0 0 .185-.184v-4.83a.185.185 0 0 0-.185-.185"/><g transform="translate(86 70.363)"><mask id="f" fill="#fff"><use xlink:href="#e"/></mask><path fill="#404041" d="M11.189 24C4.977 24 .112 18.75.112 12.05.112 5.351 4.977.101 11.189.101c4.58 0 6.737 3.381 6.828 3.528l.238.382V1.367c0-.377.307-.684.684-.684H23.1c.379 0 .687.307.687.684v21.466a.687.687 0 0 1-.687.686h-4.162a.686.686 0 0 1-.684-.686v-2.777l-.241.42C17.93 20.62 15.937 24 11.189 24m1.066-18.723c-3.816 0-6.483 2.785-6.483 6.773 0 3.99 2.667 6.775 6.483 6.775 3.789 0 5.479-3.138 5.547-3.272l.015-6.949c-.088-.193-1.82-3.327-5.562-3.327" mask="url(#f)"/></g><g transform="translate(0 64.363)"><mask id="h" fill="#fff"><use xlink:href="#g"/></mask><path fill="#404041" d="M12.072 29.948c-4.553 0-7.732-3.297-7.732-8.021V11.61H.689a.688.688 0 0 1-.69-.687V7.315c0-.378.309-.686.69-.686h3.65V.778a.69.69 0 0 1 .69-.685h4.19c.377 0 .684.308.684.685v5.85h5.74c.378 0 .685.309.685.687v3.608a.686.686 0 0 1-.685.687h-5.74v9.393c0 3.114 1.706 3.768 3.137 3.768.694 0 1.339-.23 1.76-.424a.685.685 0 0 1 .914.34l1.466 3.26a.686.686 0 0 1-.32.895 10.926 10.926 0 0 1-4.788 1.106" mask="url(#h)"/></g><path fill="#404041" d="M29.346 94.311c-6.81 0-12.144-5.249-12.144-11.95 0-6.7 5.335-11.949 12.144-11.949 6.81 0 12.144 5.25 12.144 11.948 0 6.702-5.333 11.951-12.144 11.951m0-18.723c-3.757 0-6.483 2.848-6.483 6.772 0 3.928 2.726 6.774 6.483 6.774 3.757 0 6.483-2.846 6.483-6.774 0-3.924-2.726-6.772-6.483-6.772m46.937 18.723c-6.865 0-12.244-5.249-12.244-11.95 0-6.7 5.38-11.949 12.244-11.949 4.664 0 7.667 2.511 8.743 3.591a.689.689 0 0 1-.03.996l-2.828 2.523a.693.693 0 0 1-.923-.006 7.337 7.337 0 0 0-4.962-1.928c-3.752 0-6.582 2.912-6.582 6.772 0 3.862 2.83 6.774 6.582 6.774 2.768 0 4.47-1.373 5.236-2.192a.674.674 0 0 1 .491-.213c.194 0 .367.071.498.203l2.653 2.688c.26.264.26.696.002.962-1.095 1.122-4.152 3.73-8.88 3.73m-24.058-.001c-5.204 0-8.56-2.523-9.76-3.608a.686.686 0 0 1-.082-.927l2.257-2.934a.691.691 0 0 1 .48-.265l.068-.003a.69.69 0 0 1 .449.17c1.168 1.02 3.552 2.731 6.393 2.731 2.73 0 4.495-.869 4.495-2.215 0-1.524-.884-1.862-4.662-2.65-5.677-1.206-8.438-3.546-8.438-7.148 0-3.418 3.424-7.05 9.769-7.05 3.734 0 6.54 1.446 7.88 2.308a.7.7 0 0 1 .3.442c.039.184 0 .37-.104.524l-2.006 2.942a.687.687 0 0 1-.925.201c-.968-.592-2.926-1.583-5.145-1.583-2.532 0-4.302.95-4.302 2.311 0 1.372 1.12 1.76 5.536 2.698 4.758 1.011 7.706 2.552 7.706 7.101 0 3.964-4.26 6.955-9.91 6.955m59.968-3.063v.397m2.183-20.355c.322 0 .53-.207.53-.552 0-.337-.208-.53-.53-.53h-.56v1.082h.56zm-.989-1.441h1.065c.53 0 .898.352.898.889 0 .445-.284.72-.56.79v.015s.031.038.1.168l.575 1.128h-.476l-.597-1.212h-.576v1.212h-.429v-2.99zm.905 3.87c1.303 0 2.3-1.034 2.3-2.375 0-1.326-.997-2.37-2.3-2.37-1.273 0-2.255 1.044-2.255 2.37 0 1.34.982 2.376 2.255 2.376zm0-5.158c1.525 0 2.744 1.234 2.744 2.783 0 1.564-1.219 2.79-2.744 2.79-1.495 0-2.706-1.226-2.706-2.79 0-1.55 1.211-2.783 2.706-2.783zm19.741-62.13c0-3.62 1.767-5.43 5.303-5.43h5.948c3.533 0 5.302 1.815 5.302 5.45v33.601h42.026V6.45c0-3.634 1.81-5.45 5.431-5.45h5.82c3.532 0 5.301 1.81 5.301 5.431v80.95c0 3.62-1.769 5.43-5.302 5.43h-5.819c-3.62 0-5.43-1.81-5.43-5.43V54.276h-42.027V87.38c0 3.621-1.769 5.431-5.302 5.431h-5.948c-3.536 0-5.303-1.81-5.303-5.43V6.43zm87.543 0c0-3.62 1.767-5.43 5.303-5.43h5.82c3.62 0 5.43 1.81 5.43 5.43v53.276c0 6.207 1.83 10.992 5.496 14.354 3.663 3.362 8.598 5.043 14.806 5.043 6.207 0 11.163-1.68 14.871-5.043 3.705-3.362 5.56-8.147 5.56-14.354V6.431c0-3.62 1.766-5.43 5.302-5.43h5.948c3.534 0 5.301 1.81 5.301 5.43v53.406c0 5.172-.884 9.872-2.65 14.095-1.768 4.225-4.268 7.846-7.5 10.862-3.233 3.02-7.113 5.366-11.638 7.048-4.527 1.68-9.549 2.521-15.066 2.521-5.603 0-10.668-.84-15.194-2.52-4.524-1.683-8.404-4.03-11.637-7.049-3.233-3.016-5.735-6.637-7.5-10.862-1.768-4.223-2.652-8.923-2.652-14.095V6.431zm120.649 72.156c4.31 0 7.607-1.254 9.893-3.768 2.283-2.51 3.426-5.716 3.426-9.615 0-3.898-1.164-7.082-3.491-9.552-2.328-2.469-5.605-3.703-9.828-3.703h-17.845v26.638h17.845zm-1.552-40.086c3.62 0 6.4-1.148 8.34-3.445 1.94-2.298 2.91-5.094 2.91-8.389 0-3.294-.97-6.023-2.91-8.192-1.94-2.166-4.848-3.25-8.727-3.25h-15.906v23.276h16.293zm-32.845-32.07c0-3.62 1.766-5.43 5.302-5.43h27.413c4.139 0 7.954.516 11.445 1.551 3.492 1.034 6.486 2.566 8.988 4.59a21.606 21.606 0 0 1 5.883 7.436c1.423 2.931 2.134 6.294 2.134 10.086 0 4.312-.97 8.192-2.911 11.638-1.938 3.45-4.676 6.122-8.211 8.018v.26c2.5.774 4.676 1.896 6.53 3.361a19.899 19.899 0 0 1 4.592 5.107 23.262 23.262 0 0 1 2.715 6.272c.603 2.243.905 4.526.905 6.853 0 4.571-.84 8.535-2.521 11.897s-3.99 6.142-6.918 8.341c-2.932 2.197-6.316 3.815-10.152 4.85-3.837 1.034-7.867 1.551-12.09 1.551h-27.802c-3.536 0-5.302-1.81-5.302-5.432V6.431z"/></g></svg>