<svg width="136" height="58" viewBox="0 0 136 58" fill="none" xmlns="http://www.w3.org/2000/svg">
<rect x="1" y="1" width="134" height="56" rx="28" fill="white" stroke="#EC710A" stroke-width="2"/>
<circle cx="28" cy="29" r="22" fill="#EC710A"/>
<path d="M59.3807 36V26.1818H60.8892V36H59.3807ZM60.1477 24.5455C59.8537 24.5455 59.6001 24.4453 59.3871 24.245C59.1783 24.0447 59.0739 23.804 59.0739 23.5227C59.0739 23.2415 59.1783 23.0007 59.3871 22.8004C59.6001 22.6001 59.8537 22.5 60.1477 22.5C60.4418 22.5 60.6932 22.6001 60.902 22.8004C61.1151 23.0007 61.2216 23.2415 61.2216 23.5227C61.2216 23.804 61.1151 24.0447 60.902 24.245C60.6932 24.4453 60.4418 24.5455 60.1477 24.5455ZM65.1607 30.0938V36H63.6522V26.1818H65.1096V27.7159H65.2374C65.4675 27.2173 65.8169 26.8168 66.2857 26.5142C66.7544 26.2074 67.3596 26.054 68.101 26.054C68.7658 26.054 69.3475 26.1903 69.8461 26.4631C70.3446 26.7315 70.7324 27.1406 71.0094 27.6903C71.2864 28.2358 71.4249 28.9261 71.4249 29.7614V36H69.9164V29.8636C69.9164 29.0923 69.7161 28.4915 69.3155 28.0611C68.915 27.6264 68.3652 27.4091 67.6664 27.4091C67.1848 27.4091 66.7544 27.5135 66.3752 27.7223C66.0002 27.9311 65.704 28.2358 65.4867 28.6364C65.2694 29.0369 65.1607 29.5227 65.1607 30.0938ZM77.0707 36.2301C76.4485 36.2301 75.8839 36.1129 75.3768 35.8786C74.8697 35.6399 74.467 35.2969 74.1687 34.8494C73.8704 34.3977 73.7212 33.8523 73.7212 33.2131C73.7212 32.6506 73.832 32.1946 74.0536 31.8452C74.2752 31.4915 74.5714 31.2145 74.9421 31.0142C75.3129 30.8139 75.7219 30.6648 76.1694 30.5668C76.6211 30.4645 77.0749 30.3835 77.5309 30.3239C78.1275 30.2472 78.6112 30.1896 78.9819 30.1513C79.3569 30.1087 79.6296 30.0384 79.8001 29.9403C79.9748 29.8423 80.0621 29.6719 80.0621 29.429V29.3778C80.0621 28.7472 79.8896 28.2571 79.5444 27.9077C79.2035 27.5582 78.6857 27.3835 77.9911 27.3835C77.271 27.3835 76.7063 27.5412 76.2972 27.8565C75.8881 28.1719 75.6005 28.5085 75.4343 28.8665L74.0025 28.3551C74.2582 27.7585 74.5991 27.294 75.0252 26.9616C75.4556 26.625 75.9244 26.3906 76.4315 26.2585C76.9428 26.1222 77.4457 26.054 77.94 26.054C78.2553 26.054 78.6175 26.0923 79.0266 26.169C79.44 26.2415 79.8384 26.3928 80.2219 26.6229C80.6097 26.853 80.9315 27.2003 81.1871 27.6648C81.4428 28.1293 81.5707 28.7514 81.5707 29.5312V36H80.0621V34.6705H79.9854C79.8832 34.8835 79.7127 35.1115 79.4741 35.3544C79.2354 35.5973 78.918 35.804 78.5217 35.9744C78.1254 36.1449 77.6417 36.2301 77.0707 36.2301ZM77.3008 34.875C77.8974 34.875 78.4002 34.7578 78.8093 34.5234C79.2227 34.2891 79.5337 33.9865 79.7425 33.6158C79.9556 33.245 80.0621 32.8551 80.0621 32.446V31.0653C79.9982 31.142 79.8576 31.2124 79.6403 31.2763C79.4272 31.3359 79.18 31.3892 78.8988 31.4361C78.6218 31.4787 78.3512 31.517 78.087 31.5511C77.8271 31.581 77.6161 31.6065 77.4542 31.6278C77.0621 31.679 76.6957 31.7621 76.3548 31.8771C76.0181 31.9879 75.7454 32.1562 75.5366 32.3821C75.332 32.6037 75.2298 32.9062 75.2298 33.2898C75.2298 33.8139 75.4237 34.2102 75.8114 34.4787C76.2035 34.7429 76.6999 34.875 77.3008 34.875ZM88.3127 36.2045C87.3922 36.2045 86.5996 35.9872 85.9348 35.5526C85.2701 35.1179 84.7587 34.5192 84.4007 33.7564C84.0428 32.9936 83.8638 32.1222 83.8638 31.142C83.8638 30.1449 84.0471 29.2649 84.4135 28.5021C84.7843 27.7351 85.2999 27.1364 85.9604 26.706C86.6252 26.2713 87.4007 26.054 88.2871 26.054C88.9775 26.054 89.5996 26.1818 90.1536 26.4375C90.7076 26.6932 91.1614 27.0511 91.5151 27.5114C91.8688 27.9716 92.0882 28.5085 92.1735 29.1222H90.665C90.5499 28.6747 90.2942 28.2784 89.8979 27.9332C89.5059 27.5838 88.9775 27.4091 88.3127 27.4091C87.7246 27.4091 87.209 27.5625 86.7658 27.8693C86.3269 28.1719 85.9838 28.6001 85.7367 29.1541C85.4938 29.7038 85.3723 30.3494 85.3723 31.0909C85.3723 31.8494 85.4917 32.5099 85.7303 33.0724C85.9732 33.6349 86.3141 34.0717 86.753 34.3828C87.1962 34.6939 87.7161 34.8494 88.3127 34.8494C88.7047 34.8494 89.0605 34.7812 89.3801 34.6449C89.6998 34.5085 89.9703 34.3125 90.1919 34.0568C90.4135 33.8011 90.5712 33.4943 90.665 33.1364H92.1735C92.0882 33.7159 91.8773 34.2379 91.5407 34.7024C91.2083 35.1626 90.7672 35.5291 90.2175 35.8018C89.6721 36.0703 89.0371 36.2045 88.3127 36.2045ZM98.6486 26.1818V27.4602H93.5605V26.1818H98.6486ZM95.0435 23.8295H96.552V33.1875C96.552 33.6136 96.6138 33.9332 96.7374 34.1463C96.8652 34.3551 97.0272 34.4957 97.2232 34.5682C97.4235 34.6364 97.6344 34.6705 97.856 34.6705C98.0222 34.6705 98.1586 34.6619 98.2651 34.6449C98.3716 34.6236 98.4569 34.6065 98.5208 34.5938L98.8276 35.9489C98.7253 35.9872 98.5826 36.0256 98.3993 36.0639C98.2161 36.1065 97.9838 36.1278 97.7026 36.1278C97.2765 36.1278 96.8588 36.0362 96.4498 35.853C96.0449 35.6697 95.7083 35.3906 95.4398 35.0156C95.1756 34.6406 95.0435 34.1676 95.0435 33.5966V23.8295ZM100.918 36V26.1818H102.426V36H100.918ZM101.685 24.5455C101.391 24.5455 101.137 24.4453 100.924 24.245C100.715 24.0447 100.611 23.804 100.611 23.5227C100.611 23.2415 100.715 23.0007 100.924 22.8004C101.137 22.6001 101.391 22.5 101.685 22.5C101.979 22.5 102.23 22.6001 102.439 22.8004C102.652 23.0007 102.759 23.2415 102.759 23.5227C102.759 23.804 102.652 24.0447 102.439 24.245C102.23 24.4453 101.979 24.5455 101.685 24.5455ZM113.218 26.1818L109.587 36H108.053L104.422 26.1818H106.059L108.769 34.0057H108.871L111.581 26.1818H113.218ZM118.974 36.2045C118.028 36.2045 117.212 35.9957 116.526 35.5781C115.844 35.1562 115.317 34.5682 114.947 33.8139C114.58 33.0554 114.397 32.1733 114.397 31.1676C114.397 30.1619 114.58 29.2756 114.947 28.5085C115.317 27.7372 115.833 27.1364 116.494 26.706C117.158 26.2713 117.934 26.054 118.82 26.054C119.332 26.054 119.837 26.1392 120.335 26.3097C120.834 26.4801 121.288 26.7571 121.697 27.1406C122.106 27.5199 122.432 28.0227 122.675 28.6491C122.918 29.2756 123.039 30.0469 123.039 30.9631V31.6023H115.471V30.2983H121.505C121.505 29.7443 121.394 29.25 121.173 28.8153C120.955 28.3807 120.644 28.0376 120.239 27.7862C119.839 27.5348 119.366 27.4091 118.82 27.4091C118.219 27.4091 117.7 27.5582 117.261 27.8565C116.826 28.1506 116.491 28.5341 116.257 29.0071C116.023 29.4801 115.906 29.9872 115.906 30.5284V31.3977C115.906 32.1392 116.033 32.7678 116.289 33.2834C116.549 33.7947 116.909 34.1847 117.369 34.4531C117.83 34.7173 118.364 34.8494 118.974 34.8494C119.37 34.8494 119.728 34.794 120.048 34.6832C120.371 34.5682 120.651 34.3977 120.885 34.1719C121.119 33.9418 121.3 33.6562 121.428 33.3153L122.886 33.7244C122.732 34.2188 122.474 34.6534 122.112 35.0284C121.75 35.3991 121.303 35.6889 120.77 35.8977C120.237 36.1023 119.638 36.2045 118.974 36.2045Z" fill="#EC710A" fill-opacity="0.68"/>
</svg>
