<svg width="136" height="58" viewBox="0 0 136 58" fill="none" xmlns="http://www.w3.org/2000/svg">
<rect x="1" y="1" width="134" height="56" rx="28" fill="white" stroke="#81D3F5" stroke-width="2"/>
<circle cx="108" cy="29" r="22" fill="#81D3F5"/>
<path d="M26.2699 36.2301C25.6477 36.2301 25.0831 36.1129 24.576 35.8786C24.0689 35.6399 23.6662 35.2969 23.3679 34.8494C23.0696 34.3977 22.9205 33.8523 22.9205 33.2131C22.9205 32.6506 23.0313 32.1946 23.2528 31.8452C23.4744 31.4915 23.7706 31.2145 24.1413 31.0142C24.5121 30.8139 24.9212 30.6648 25.3686 30.5668C25.8203 30.4645 26.2741 30.3835 26.7301 30.3239C27.3267 30.2472 27.8104 30.1896 28.1811 30.1513C28.5561 30.1087 28.8288 30.0384 28.9993 29.9403C29.174 29.8423 29.2614 29.6719 29.2614 29.429V29.3778C29.2614 28.7472 29.0888 28.2571 28.7436 27.9077C28.4027 27.5582 27.8849 27.3835 27.1903 27.3835C26.4702 27.3835 25.9055 27.5412 25.4964 27.8565C25.0874 28.1719 24.7997 28.5085 24.6335 28.8665L23.2017 28.3551C23.4574 27.7585 23.7983 27.294 24.2244 26.9616C24.6548 26.625 25.1236 26.3906 25.6307 26.2585C26.142 26.1222 26.6449 26.054 27.1392 26.054C27.4545 26.054 27.8168 26.0923 28.2259 26.169C28.6392 26.2415 29.0376 26.3928 29.4212 26.6229C29.8089 26.853 30.1307 27.2003 30.3864 27.6648C30.642 28.1293 30.7699 28.7514 30.7699 29.5312V36H29.2614V34.6705H29.1847C29.0824 34.8835 28.9119 35.1115 28.6733 35.3544C28.4347 35.5973 28.1172 35.804 27.7209 35.9744C27.3246 36.1449 26.8409 36.2301 26.2699 36.2301ZM26.5 34.875C27.0966 34.875 27.5994 34.7578 28.0085 34.5234C28.4219 34.2891 28.733 33.9865 28.9418 33.6158C29.1548 33.245 29.2614 32.8551 29.2614 32.446V31.0653C29.1974 31.142 29.0568 31.2124 28.8395 31.2763C28.6264 31.3359 28.3793 31.3892 28.098 31.4361C27.821 31.4787 27.5504 31.517 27.2862 31.5511C27.0263 31.581 26.8153 31.6065 26.6534 31.6278C26.2614 31.679 25.8949 31.7621 25.554 31.8771C25.2173 31.9879 24.9446 32.1562 24.7358 32.3821C24.5313 32.6037 24.429 32.9062 24.429 33.2898C24.429 33.8139 24.6229 34.2102 25.0107 34.4787C25.4027 34.7429 25.8991 34.875 26.5 34.875ZM37.5119 36.2045C36.5914 36.2045 35.7988 35.9872 35.1341 35.5526C34.4693 35.1179 33.9579 34.5192 33.6 33.7564C33.242 32.9936 33.063 32.1222 33.063 31.142C33.063 30.1449 33.2463 29.2649 33.6127 28.5021C33.9835 27.7351 34.4991 27.1364 35.1596 26.706C35.8244 26.2713 36.6 26.054 37.4863 26.054C38.1767 26.054 38.7988 26.1818 39.3528 26.4375C39.9068 26.6932 40.3606 27.0511 40.7143 27.5114C41.068 27.9716 41.2875 28.5085 41.3727 29.1222H39.8642C39.7491 28.6747 39.4934 28.2784 39.0971 27.9332C38.7051 27.5838 38.1767 27.4091 37.5119 27.4091C36.9238 27.4091 36.4082 27.5625 35.965 27.8693C35.5261 28.1719 35.1831 28.6001 34.9359 29.1541C34.693 29.7038 34.5716 30.3494 34.5716 31.0909C34.5716 31.8494 34.6909 32.5099 34.9295 33.0724C35.1724 33.6349 35.5133 34.0717 35.9522 34.3828C36.3954 34.6939 36.9153 34.8494 37.5119 34.8494C37.9039 34.8494 38.2598 34.7812 38.5794 34.6449C38.899 34.5085 39.1696 34.3125 39.3912 34.0568C39.6127 33.8011 39.7704 33.4943 39.8642 33.1364H41.3727C41.2875 33.7159 41.0765 34.2379 40.7399 34.7024C40.4075 35.1626 39.9664 35.5291 39.4167 35.8018C38.8713 36.0703 38.2363 36.2045 37.5119 36.2045ZM47.8478 26.1818V27.4602H42.7598V26.1818H47.8478ZM44.2427 23.8295H45.7512V33.1875C45.7512 33.6136 45.813 33.9332 45.9366 34.1463C46.0645 34.3551 46.2264 34.4957 46.4224 34.5682C46.6227 34.6364 46.8336 34.6705 47.0552 34.6705C47.2214 34.6705 47.3578 34.6619 47.4643 34.6449C47.5708 34.6236 47.6561 34.6065 47.72 34.5938L48.0268 35.9489C47.9245 35.9872 47.7818 36.0256 47.5985 36.0639C47.4153 36.1065 47.1831 36.1278 46.9018 36.1278C46.4757 36.1278 46.0581 36.0362 45.649 35.853C45.2441 35.6697 44.9075 35.3906 44.639 35.0156C44.3748 34.6406 44.2427 34.1676 44.2427 33.5966V23.8295ZM50.117 36V26.1818H51.6255V36H50.117ZM50.8841 24.5455C50.59 24.5455 50.3365 24.4453 50.1234 24.245C49.9146 24.0447 49.8102 23.804 49.8102 23.5227C49.8102 23.2415 49.9146 23.0007 50.1234 22.8004C50.3365 22.6001 50.59 22.5 50.8841 22.5C51.1781 22.5 51.4295 22.6001 51.6383 22.8004C51.8514 23.0007 51.9579 23.2415 51.9579 23.5227C51.9579 23.804 51.8514 24.0447 51.6383 24.245C51.4295 24.4453 51.1781 24.5455 50.8841 24.5455ZM62.4169 26.1818L58.7862 36H57.2521L53.6214 26.1818H55.2578L57.968 34.0057H58.0703L60.7805 26.1818H62.4169ZM68.1729 36.2045C67.2269 36.2045 66.4109 35.9957 65.7248 35.5781C65.043 35.1562 64.5167 34.5682 64.146 33.8139C63.7795 33.0554 63.5962 32.1733 63.5962 31.1676C63.5962 30.1619 63.7795 29.2756 64.146 28.5085C64.5167 27.7372 65.0323 27.1364 65.6928 26.706C66.3576 26.2713 67.1332 26.054 68.0195 26.054C68.5309 26.054 69.0359 26.1392 69.5344 26.3097C70.033 26.4801 70.4869 26.7571 70.896 27.1406C71.305 27.5199 71.631 28.0227 71.8739 28.6491C72.1168 29.2756 72.2383 30.0469 72.2383 30.9631V31.6023H64.6701V30.2983H70.7042C70.7042 29.7443 70.5934 29.25 70.3718 28.8153C70.1545 28.3807 69.8434 28.0376 69.4386 27.7862C69.038 27.5348 68.565 27.4091 68.0195 27.4091C67.4187 27.4091 66.8988 27.5582 66.4599 27.8565C66.0252 28.1506 65.6907 28.5341 65.4563 29.0071C65.2219 29.4801 65.1048 29.9872 65.1048 30.5284V31.3977C65.1048 32.1392 65.2326 32.7678 65.4883 33.2834C65.7482 33.7947 66.1083 34.1847 66.5685 34.4531C67.0288 34.7173 67.5636 34.8494 68.1729 34.8494C68.5692 34.8494 68.9272 34.794 69.2468 34.6832C69.5707 34.5682 69.8498 34.3977 70.0842 34.1719C70.3185 33.9418 70.4996 33.6562 70.6275 33.3153L72.0849 33.7244C71.9315 34.2188 71.6737 34.6534 71.3114 35.0284C70.9492 35.3991 70.5018 35.6889 69.9691 35.8977C69.4364 36.1023 68.8377 36.2045 68.1729 36.2045Z" fill="#81D3F5"/>
</svg>
