<?xml version="1.0" encoding="UTF-8"?>
<svg width="60px" height="60px" viewBox="0 0 60 60" version="1.1" xmlns="http://www.w3.org/2000/svg" xmlns:xlink="http://www.w3.org/1999/xlink">
    <!-- Generator: Sketch 52.4 (67378) - http://www.bohemiancoding.com/sketch -->
    <title>Icon/Tosca/Beef</title>
    <desc>Created with Sketch.</desc>
    <defs>
        <polygon id="path-1" points="0 0.791837838 18.0248378 0.791837838 18.0248378 36.9728703 0 36.9728703"></polygon>
    </defs>
    <g id="Icon/Tosca/Beef" stroke="none" stroke-width="1" fill="none" fill-rule="evenodd">
        <g id="Group-6" transform="translate(11.000000, 11.000000)">
            <g id="Group-3" transform="translate(0.000000, 0.235189)">
                <mask id="mask-2" fill="white">
                    <use xlink:href="#path-1"></use>
                </mask>
                <g id="Clip-2"></g>
                <path d="M17.9508919,30.0661135 L17.8050541,30.0640595 C16.9577568,30.5436811 16.1012162,31.0212486 15.2385135,31.4947081 C12.5302432,32.9849243 10.1105676,33.7387622 8.04727027,33.7387622 C5.74981081,33.7387622 4.02543243,32.7158432 3.43591892,30.9986541 C2.91418919,29.4807081 3.42154054,27.7912486 4.69710811,26.7981135 C11.1242432,21.7934108 10.3324054,14.2211405 10.2954324,13.9048162 C9.64840541,7.46535676 12.0547297,5.32503243 13.5788378,4.61124865 L13.623,4.59481622 L13.7041351,4.49314054 C14.0533243,3.06865405 14.7208919,1.94303243 15.7479189,1.05054595 L15.7859189,0.880059459 L15.637,0.791735135 C14.3521892,0.918059459 13.1865135,1.22103243 12.1718108,1.6986 C9.90721622,2.76362703 6.23354054,5.80876216 7.08083784,14.2498973 C7.08597297,14.3115189 7.71451351,20.3514649 2.71083784,24.2490324 C0.344567568,26.0904919 -0.592081081,29.2280595 0.378459459,32.0503297 C1.42191892,35.0851946 4.36024324,36.9728703 8.04727027,36.9728703 C10.6620811,36.9728703 13.6034865,36.0834649 16.7965135,34.3282757 C17.1816486,34.1156811 17.5647297,33.9030865 17.9488378,33.6884378 L18.0248378,33.5621135 L18.0248378,30.1903838 L17.9508919,30.0661135 Z" id="Fill-1" fill="#7FD2F5" mask="url(#mask-2)"></path>
            </g>
            <path d="M34.9084432,8.02159459 C33.1327135,6.12981081 27.8075784,3.18532432 22.6888757,1.805 L22.6406054,1.78137838 C22.4619027,1.73105405 21.5129297,1.4742973 20.3595784,1.4742973 C19.1702811,1.4742973 18.1771459,1.74132432 17.4048216,2.27024324 C15.8129297,3.35786486 15.1926054,4.91278378 15.1926054,7.80694595 L15.1926054,15.9153243 L15.2049297,15.9707838 C15.3199568,19.0118108 17.8721189,21.4777027 20.9193081,21.4777027 C24.0743351,21.4777027 26.6398486,18.9101351 26.6398486,15.7540811 C26.6398486,12.5990541 24.0743351,10.0314865 20.9193081,10.0314865 C20.7508757,10.0314865 20.574227,10.0397027 20.3780649,10.0592162 L20.2445514,10.2060811 L20.2445514,13.1711081 L20.2969297,13.2851081 L20.420173,13.3148919 C20.5855243,13.2830541 20.7529297,13.2635405 20.9193081,13.2635405 C22.2914162,13.2635405 23.4067676,14.381973 23.4067676,15.7540811 C23.4067676,17.1261892 22.2914162,18.2435946 20.9193081,18.2435946 C19.5451459,18.2435946 18.4277405,17.1261892 18.4277405,15.7540811 L18.4256865,15.7304595 L18.4256865,7.80694595 C18.4256865,5.48791892 18.8714162,5.18083784 19.2277946,4.93640541 C19.4465514,4.79056757 19.8440108,4.70532432 20.3472541,4.70532432 C20.8083892,4.70532432 21.3486054,4.77618919 21.7553081,4.89018919 C26.5268757,6.15651351 31.2491459,8.8462973 32.5329297,10.2142973 C34.1843892,12.0311081 34.8406595,13.7924595 34.5397405,15.597973 C33.7314703,20.4424595 26.2875784,25.3588378 19.8922811,29.0992703 L19.8193622,29.2255946 L19.8193622,32.6260811 L19.8922811,32.7524054 L19.9652,32.7729459 L20.0381189,32.7544595 C28.5963351,27.8925135 36.6615784,22.513973 37.7276324,16.1330541 C38.1959568,13.3251622 37.2469838,10.5973784 34.9084432,8.02159459" id="Fill-4" fill="#F4811F"></path>
        </g>
    </g>
</svg>