<?xml version="1.0" encoding="UTF-8"?>
<svg width="60px" height="60px" viewBox="0 0 60 60" version="1.1" xmlns="http://www.w3.org/2000/svg" xmlns:xlink="http://www.w3.org/1999/xlink">
    <!-- Generator: Sketch 52.4 (67378) - http://www.bohemiancoding.com/sketch -->
    <title>Icon/Tosca/Container</title>
    <desc>Created with Sketch.</desc>
    <defs>
        <polygon id="path-1" points="0 0.423645833 34.23642 0.423645833 34.23642 41.3979792 0 41.3979792"></polygon>
        <polygon id="path-3" points="0.02783 0.344680556 34.3574 0.344680556 34.3574 41.4997694 0.02783 41.4997694"></polygon>
    </defs>
    <g id="Icon/Tosca/Container" stroke="none" stroke-width="1" fill="none" fill-rule="evenodd">
        <g id="Icons/Container" transform="translate(10.000000, 9.000000)">
            <g id="Group-3">
                <mask id="mask-2" fill="white">
                    <use xlink:href="#path-1"></use>
                </mask>
                <g id="Clip-2"></g>
                <path d="M34.15362,21.2451181 L33.98917,21.2451181 L20.05347,29.3099514 L3.76142,19.8825347 L3.76142,13.4373542 L18.93452,4.68085417 L19.01732,4.5390625 L19.01732,0.567743056 L18.93567,0.423645833 L18.77007,0.423645833 L0.94162,10.7098819 C0.36087,11.0453403 -0.00023,11.6712986 -0.00023,12.3445208 L-0.00023,29.5577986 C-0.00023,30.2310208 0.35857,30.8569792 0.94047,31.1924375 L18.77122,41.3760764 L18.85172,41.3979792 L18.93567,41.3760764 L19.01732,41.2342847 L19.01732,37.2710347 L18.93452,37.1292431 L3.76142,28.4695764 L3.76142,24.2388819 L19.11277,33.1233403 C19.68432,33.4507292 20.42377,33.4507292 20.99417,33.1233403 L34.15362,25.5046319 L34.23642,25.3628403 L34.23642,21.3869097 L34.15362,21.2451181 Z" id="Fill-1" fill="#7FD2F5" mask="url(#mask-2)"></path>
            </g>
            <g id="Group-6" transform="translate(5.500000, 0.000000)">
                <mask id="mask-4" fill="white">
                    <use xlink:href="#path-3"></use>
                </mask>
                <g id="Clip-5"></g>
                <path d="M33.41578,10.7102278 L15.52178,0.34445 L15.35848,0.34445 L15.27568,0.486241667 L15.27568,4.46447778 L15.35848,4.60626944 L28.61108,12.286075 L14.30393,20.565325 L2.10013,13.5045611 L1.93568,13.5045611 L0.11063,14.5558944 L0.02783,14.6999917 L0.02783,16.5663389 L0.10948,16.7104361 L13.36323,24.3775611 C13.93478,24.7072556 14.67308,24.7072556 15.24348,24.3775611 L30.59598,15.4942556 L30.59598,28.4676167 L15.35848,37.2241167 L15.27568,37.3682139 L15.27568,41.336075 L15.35733,41.4778667 L15.44013,41.4997694 L15.52178,41.4778667 L33.41693,31.1939361 C33.99768,30.8584778 34.35763,30.2325194 34.35763,29.5592972 L34.35763,12.3448667 C34.35763,11.6716444 33.99653,11.0456861 33.41578,10.7102278" id="Fill-4" fill="#F4811F" mask="url(#mask-4)"></path>
            </g>
        </g>
    </g>
</svg>