<svg width="24" height="18" viewBox="0 0 24 18" fill="none" xmlns="http://www.w3.org/2000/svg">
<path d="M21.75 1.5C21.9489 1.5 22.1397 1.57902 22.2803 1.71967C22.421 1.86032 22.5 2.05109 22.5 2.25V15.75C22.5 15.9489 22.421 16.1397 22.2803 16.2803C22.1397 16.421 21.9489 16.5 21.75 16.5H2.25C2.05109 16.5 1.86032 16.421 1.71967 16.2803C1.57902 16.1397 1.5 15.9489 1.5 15.75V2.25C1.5 2.05109 1.57902 1.86032 1.71967 1.71967C1.86032 1.57902 2.05109 1.5 2.25 1.5H21.75ZM2.25 0C1.65326 0 1.08097 0.237053 0.65901 0.65901C0.237053 1.08097 0 1.65326 0 2.25L0 15.75C0 16.3467 0.237053 16.919 0.65901 17.341C1.08097 17.7629 1.65326 18 2.25 18H21.75C22.3467 18 22.919 17.7629 23.341 17.341C23.7629 16.919 24 16.3467 24 15.75V2.25C24 1.65326 23.7629 1.08097 23.341 0.65901C22.919 0.237053 22.3467 0 21.75 0H2.25Z" fill="#EC710A"/>
<path d="M7.5 9C7.5 8.80109 7.57902 8.61032 7.71967 8.46967C7.86032 8.32902 8.05109 8.25 8.25 8.25H18.75C18.9489 8.25 19.1397 8.32902 19.2803 8.46967C19.421 8.61032 19.5 8.80109 19.5 9C19.5 9.19891 19.421 9.38968 19.2803 9.53033C19.1397 9.67098 18.9489 9.75 18.75 9.75H8.25C8.05109 9.75 7.86032 9.67098 7.71967 9.53033C7.57902 9.38968 7.5 9.19891 7.5 9ZM7.5 5.25C7.5 5.05109 7.57902 4.86032 7.71967 4.71967C7.86032 4.57902 8.05109 4.5 8.25 4.5H18.75C18.9489 4.5 19.1397 4.57902 19.2803 4.71967C19.421 4.86032 19.5 5.05109 19.5 5.25C19.5 5.44891 19.421 5.63968 19.2803 5.78033C19.1397 5.92098 18.9489 6 18.75 6H8.25C8.05109 6 7.86032 5.92098 7.71967 5.78033C7.57902 5.63968 7.5 5.44891 7.5 5.25ZM7.5 12.75C7.5 12.5511 7.57902 12.3603 7.71967 12.2197C7.86032 12.079 8.05109 12 8.25 12H18.75C18.9489 12 19.1397 12.079 19.2803 12.2197C19.421 12.3603 19.5 12.5511 19.5 12.75C19.5 12.9489 19.421 13.1397 19.2803 13.2803C19.1397 13.421 18.9489 13.5 18.75 13.5H8.25C8.05109 13.5 7.86032 13.421 7.71967 13.2803C7.57902 13.1397 7.5 12.9489 7.5 12.75ZM6 5.25C6 5.44891 5.92098 5.63968 5.78033 5.78033C5.63968 5.92098 5.44891 6 5.25 6C5.05109 6 4.86032 5.92098 4.71967 5.78033C4.57902 5.63968 4.5 5.44891 4.5 5.25C4.5 5.05109 4.57902 4.86032 4.71967 4.71967C4.86032 4.57902 5.05109 4.5 5.25 4.5C5.44891 4.5 5.63968 4.57902 5.78033 4.71967C5.92098 4.86032 6 5.05109 6 5.25ZM6 9C6 9.19891 5.92098 9.38968 5.78033 9.53033C5.63968 9.67098 5.44891 9.75 5.25 9.75C5.05109 9.75 4.86032 9.67098 4.71967 9.53033C4.57902 9.38968 4.5 9.19891 4.5 9C4.5 8.80109 4.57902 8.61032 4.71967 8.46967C4.86032 8.32902 5.05109 8.25 5.25 8.25C5.44891 8.25 5.63968 8.32902 5.78033 8.46967C5.92098 8.61032 6 8.80109 6 9ZM6 12.75C6 12.9489 5.92098 13.1397 5.78033 13.2803C5.63968 13.421 5.44891 13.5 5.25 13.5C5.05109 13.5 4.86032 13.421 4.71967 13.2803C4.57902 13.1397 4.5 12.9489 4.5 12.75C4.5 12.5511 4.57902 12.3603 4.71967 12.2197C4.86032 12.079 5.05109 12 5.25 12C5.44891 12 5.63968 12.079 5.78033 12.2197C5.92098 12.3603 6 12.5511 6 12.75Z" fill="#EC710A"/>
</svg>
