<svg width="20" height="18" viewBox="0 0 20 18" fill="none" xmlns="http://www.w3.org/2000/svg">
<path d="M13.9691 12.0798L15.0802 10.9593C15.2538 10.7842 15.5559 10.9067 15.5559 11.1589V16.2502C15.5559 17.1782 14.8093 17.931 13.8892 17.931H1.6667C0.746544 17.931 0 17.1782 0 16.2502V3.92447C0 2.99653 0.746544 2.24368 1.6667 2.24368H11.1634C11.41 2.24368 11.535 2.54482 11.3614 2.7234L10.2502 3.84393C10.1981 3.89645 10.1287 3.92447 10.0523 3.92447H1.6667V16.2502H13.8892V12.2759C13.8892 12.2023 13.917 12.1323 13.9691 12.0798ZM19.4067 5.01348L10.2884 14.2088L7.14946 14.559C6.23972 14.6605 5.4654 13.8866 5.56609 12.9622L5.91332 9.79672L15.0316 0.601407C15.8267 -0.200469 17.1115 -0.200469 17.9032 0.601407L19.4032 2.11412C20.1984 2.91599 20.1984 4.2151 19.4067 5.01348ZM15.976 6.09548L13.9586 4.06103L7.50711 10.5706L7.25363 12.8572L9.52104 12.6015L15.976 6.09548ZM18.2261 3.30467L16.7261 1.79197C16.5837 1.6484 16.351 1.6484 16.2122 1.79197L15.1392 2.87397L17.1566 4.90843L18.2296 3.82642C18.3685 3.67935 18.3685 3.44824 18.2261 3.30467Z" fill="#AFAFAF"/>
</svg>
