<?xml version="1.0" encoding="UTF-8"?>
<svg width="60px" height="60px" viewBox="0 0 60 60" version="1.1" xmlns="http://www.w3.org/2000/svg" xmlns:xlink="http://www.w3.org/1999/xlink">
    <!-- Generator: Sketch 52.4 (67378) - http://www.bohemiancoding.com/sketch -->
    <title>Icon/Tosca/Eggs</title>
    <desc>Created with Sketch.</desc>
    <defs>
        <polygon id="path-1" points="0 0.234285714 14.1298286 0.234285714 14.1298286 38.8568 0 38.8568"></polygon>
        <polygon id="path-3" points="1.11794286 0.234285714 15.2463788 0.234285714 15.2463788 38.8566857 1.11794286 38.8566857"></polygon>
    </defs>
    <g id="Icon/Tosca/Eggs" stroke="none" stroke-width="1" fill="none" fill-rule="evenodd">
        <g id="eggs" transform="translate(15.000000, 10.000000)">
            <g id="Group-3" transform="translate(0.000000, 0.908686)">
                <mask id="mask-2" fill="white">
                    <use xlink:href="#path-1"></use>
                </mask>
                <g id="Clip-2"></g>
                <path d="M14.0109714,4.02822857 L14.1298286,3.8728 L14.1298286,0.396228571 L14.0715429,0.273942857 L13.9435429,0.233942857 C7.16525714,1.1208 1.21211429,13.3893714 0.359542857,19.5105143 C-0.216457143,23.6350857 -0.115885714,26.0133714 0.769828571,29.3002286 L0.783542857,29.3425143 C1.42125714,31.4865143 4.26125714,38.5128 13.9595429,38.8568 L13.9641143,38.8568 L14.0784,38.8110857 L14.1298286,38.6933714 L14.1298286,35.2785143 L13.9709714,35.1162286 C7.06925714,34.8168 4.96182857,30.2465143 4.3744,28.3002286 C3.63611429,25.5528 3.56182857,23.6190857 4.06468571,20.0270857 C5.04182857,13.0042286 10.4955429,5.06137143 14.0109714,4.02822857" id="Fill-1" fill="#F4811F" mask="url(#mask-2)"></path>
            </g>
            <g id="Group-6" transform="translate(14.857143, 0.908686)">
                <mask id="mask-4" fill="white">
                    <use xlink:href="#path-3"></use>
                </mask>
                <g id="Clip-5"></g>
                <path d="M14.8882286,19.5104 C14.0356571,13.3892571 8.08251429,1.12068571 1.3008,0.233828571 L1.17394286,0.273828571 L1.11794286,0.396114286 L1.11794286,3.87268571 L1.2368,4.02811429 C4.74994286,5.06125714 10.2048,13.0041143 11.1830857,20.0269714 C11.6825143,23.6189714 11.6116571,25.5526857 10.8722286,28.2955429 C10.2859429,30.2464 8.17622857,34.8166857 1.27451429,35.1161143 L1.11794286,35.2784 L1.11794286,38.6932571 L1.16708571,38.8109714 L1.28137143,38.8566857 L1.28822857,38.8566857 C10.9842286,38.5126857 13.8230857,31.4864 14.4619429,29.3446857 L14.4779429,29.2978286 C15.3613714,26.0132571 15.4619429,23.6349714 14.8882286,19.5104" id="Fill-4" fill="#7FD2F5" mask="url(#mask-4)"></path>
            </g>
        </g>
    </g>
</svg>