<?xml version="1.0" encoding="UTF-8"?>
<svg width="60px" height="60px" viewBox="0 0 60 60" version="1.1" xmlns="http://www.w3.org/2000/svg" xmlns:xlink="http://www.w3.org/1999/xlink">
    <!-- Generator: Sketch 52.4 (67378) - http://www.bohemiancoding.com/sketch -->
    <title>Icon/Tosca/Poultry</title>
    <desc>Created with Sketch.</desc>
    <defs>
        <polygon id="path-1" points="0 0.277878261 12.1132174 0.277878261 12.1132174 44.8688348 0 44.8688348"></polygon>
    </defs>
    <g id="Icon/Tosca/Poultry" stroke="none" stroke-width="1" fill="none" fill-rule="evenodd">
        <g id="Group-6" transform="translate(18.000000, 7.000000)">
            <path d="M23.7534261,15.093913 C23.7461217,7.86469565 19.003513,1.69356522 12.9534261,1.04347826 L12.8376,1.08104348 L12.7885565,1.19373913 L12.7885565,4.20208696 L12.9158609,4.35130435 C17.2212522,5.00973913 20.4696,9.63443478 20.4696,15.1095652 L20.4706435,15.1523478 C20.4706435,15.1544348 20.4737739,15.4194783 20.4362087,15.8911304 C20.3840348,16.797913 20.2546435,17.6514783 20.0553391,18.432 L20.0386435,18.4977391 C19.4751652,21.1533913 18.095687,23.090087 14.2932522,27.9495652 C14.0668174,28.2354783 13.9426435,28.5965217 13.9426435,28.9606957 L13.9426435,37.7050435 C13.9426435,38.3937391 14.3777739,39.0146087 15.0257739,39.2483478 C15.6549913,39.4768696 16.0786435,40.08 16.0786435,40.749913 C16.0786435,41.6337391 15.3607304,42.3495652 14.4779478,42.3495652 C13.9739478,42.3495652 13.5064696,42.1106087 13.1944696,41.6921739 L13.079687,41.5648696 L13.0442087,41.5293913 L12.8803826,41.4970435 L12.7885565,41.6358261 L12.7885565,45.2264348 L12.8897739,45.3673043 C13.4031652,45.5457391 13.9374261,45.6354783 14.4779478,45.6354783 C17.1711652,45.6354783 19.3624696,43.4452174 19.3624696,40.749913 C19.3624696,39.1304348 18.5662957,37.6309565 17.2264696,36.7158261 L17.2264696,29.5273043 C20.7711652,24.9923478 22.507513,22.6486957 23.2452522,19.2166957 C23.4925565,18.2410435 23.6501217,17.1975652 23.7137739,16.1154783 C23.755513,15.578087 23.755513,15.2201739 23.7534261,15.093913" id="Fill-1" fill="#7FD2F5"></path>
            <g id="Group-5" transform="translate(0.000000, 0.765913)">
                <mask id="mask-2" fill="white">
                    <use xlink:href="#path-1"></use>
                </mask>
                <g id="Clip-4"></g>
                <path d="M12.0683478,28.3557913 L11.9598261,28.3130087 L11.8763478,28.3171826 C10.9257391,28.3171826 10.2683478,28.1857043 9.52852174,27.4980522 C8.27530435,26.1196174 4.28504348,20.3992696 3.71426087,17.7290087 L3.69965217,17.664313 C3.5013913,16.8921391 3.37304348,16.0458783 3.31878261,15.1516174 C3.28226087,14.6664 3.28434783,14.3992696 3.28434783,14.3690087 C3.28434783,8.87822609 6.53165217,4.24413913 10.8391304,3.58570435 L10.9664348,3.43648696 L10.9664348,0.427095652 L10.9163478,0.315443478 L10.7994783,0.277878261 C4.74417391,0.927965217 0.00052173913,7.1064 0.00052173913,14.3335304 C-0.00156521739,14.3679652 -0.00260869565,14.7540522 0.0422608696,15.3717913 C0.105913043,16.4476174 0.264521739,17.4837913 0.50973913,18.4490087 C1.27773913,21.6097043 4.88713043,26.6977043 6.52643478,28.804487 L6.52643478,35.9512696 C5.18765217,36.864313 4.39147826,38.3669217 4.39147826,39.984313 C4.39147826,42.6796174 6.58278261,44.8688348 9.276,44.8688348 C9.81652174,44.8688348 10.3507826,44.7790957 10.8662609,44.6006609 L10.9664348,44.4608348 L10.9664348,40.8691826 L10.8725217,40.728313 L10.7107826,40.7637913 L10.6763478,40.7971826 L10.5573913,40.9265739 C10.2474783,41.3439652 9.78208696,41.5839652 9.276,41.5839652 C8.39321739,41.5839652 7.67530435,40.8670957 7.67530435,39.984313 C7.67530435,39.3144 8.1,38.7112696 8.73026087,38.4827478 C9.37721739,38.2469217 9.81130435,37.6270957 9.81130435,36.9394435 L9.81130435,31.2890087 C10.4582609,31.492487 11.1511304,31.6020522 11.8763478,31.6020522 L11.9692174,31.5978783 L12.1132174,31.4476174 L12.1132174,28.4622261 L12.0683478,28.3557913 Z" id="Fill-3" fill="#F4811F" mask="url(#mask-2)"></path>
            </g>
        </g>
    </g>
</svg>