<?xml version="1.0" encoding="UTF-8"?>
<svg width="60px" height="60px" viewBox="0 0 60 60" version="1.1" xmlns="http://www.w3.org/2000/svg" xmlns:xlink="http://www.w3.org/1999/xlink">
    <!-- Generator: Sketch 52.4 (67378) - http://www.bohemiancoding.com/sketch -->
    <title>Icon/Tosca/Produce</title>
    <desc>Created with Sketch.</desc>
    <g id="Icon/Tosca/Produce" stroke="none" stroke-width="1" fill="none" fill-rule="evenodd">
        <g id="Group-5" transform="translate(15.000000, 10.000000)">
            <path d="M13.6668718,36.208 C7.8145641,35.6859487 3.22789744,30.6705641 3.22789744,24.7895385 C3.22789744,21.0818462 5.04328205,17.5844103 8.08225641,15.4285128 L8.13969231,15.2797949 L8.02892308,15.1649231 C6.92738462,14.9177436 5.88328205,14.5115897 4.93353846,13.953641 L4.75917949,13.9721026 C1.7345641,16.7526154 0.000205128205,20.6951795 0.000205128205,24.7895385 C0.000205128205,32.462359 5.99507692,38.9003077 13.6453333,39.4428718 L13.6545641,39.4449231 L13.7540513,39.4038974 L13.8022564,39.2972308 L13.8022564,36.353641 L13.6668718,36.208 Z M21.4627692,2.19364103 C17.7191795,2.19364103 14.4299487,4.58953846 13.2750769,8.15466667 L13.2996923,8.29107692 L13.4258462,8.34748718 C13.8966154,8.30953846 14.312,8.29312821 14.6955897,8.29312821 C15.2955897,8.29312821 15.9191795,8.328 16.5499487,8.40082051 L16.5643077,8.40184615 L16.6945641,8.32389744 C17.6289231,6.53210256 19.4566154,5.42133333 21.4627692,5.42133333 L21.6094359,5.27466667 L21.6094359,2.33928205 L21.4627692,2.19364103 Z" id="Fill-1" fill="#7FD2F5"></path>
            <path d="M14.6930256,10.0902564 C13.9966154,10.0902564 12.9658462,10.2082051 12.1391795,10.3025641 C11.5350769,10.3723077 11.0130256,10.4317949 10.7617436,10.4317949 C8.88379487,10.4317949 7.3094359,9.79589744 6.20687179,8.59384615 C5.08276923,7.37025641 4.48379487,5.60410256 4.47148718,3.47794872 C5.20584615,3.31179487 5.92071795,3.22871795 6.59969231,3.22871795 C8.47558974,3.22871795 10.052,3.86461538 11.1555897,5.06666667 C11.4386667,5.37538462 11.6961026,5.73333333 11.9166154,6.12820513 L12.0468718,6.20102564 L12.0478974,6.20102564 L12.1771282,6.12 C12.6437949,5.19897436 13.2437949,4.34974359 13.9637949,3.60205128 L13.9740513,3.40820513 C13.812,3.20410256 13.6735385,3.03692308 13.5330256,2.88410256 C11.8017436,0.997948718 9.40379487,0 6.59969231,0 C5.26020513,0 3.85405128,0.232820513 2.42020513,0.693333333 C2.22020513,0.757948718 2.02841026,0.867692308 1.86430769,1.00615385 C1.53815385,1.28307692 1.33610256,1.67076923 1.29917949,2.0974359 C0.998666667,5.59282051 1.89610256,8.67384615 3.82635897,10.7753846 C5.55764103,12.6646154 7.95661538,13.6594872 10.7648205,13.6594872 C11.8602051,13.6338462 12.706359,13.4964103 12.7166154,13.494359 C13.3832821,13.3794872 14.0478974,13.3189744 14.6950769,13.3189744 C21.0191795,13.3189744 26.1668718,18.4635897 26.1668718,24.7897436 C26.1668718,30.6687179 21.5802051,35.6841026 15.7268718,36.2082051 L15.5925128,36.3538462 L15.5925128,39.2974359 L15.6386667,39.4041026 L15.7402051,39.4430769 L15.7494359,39.4430769 C23.3996923,38.8984615 29.3945641,32.4605128 29.3945641,24.7897436 C29.3945641,16.6871795 22.7996923,10.0933333 14.6930256,10.0902564" id="Fill-3" fill="#F4811F"></path>
        </g>
    </g>
</svg>