<?xml version="1.0" encoding="UTF-8"?>
<svg width="60px" height="60px" viewBox="0 0 60 60" version="1.1" xmlns="http://www.w3.org/2000/svg" xmlns:xlink="http://www.w3.org/1999/xlink">
    <!-- Generator: Sketch 52.4 (67378) - http://www.bohemiancoding.com/sketch -->
    <title>Icon/Tosca/Return</title>
    <desc>Created with Sketch.</desc>
    <defs>
        <polygon id="path-1" points="0 0.915189475 34.417066 0.915189475 34.417066 40.4197623 0 40.4197623"></polygon>
        <polygon id="path-3" points="0.443022 0.35438 37.2507473 0.35438 37.2507473 41.852748 0.443022 41.852748"></polygon>
    </defs>
    <g id="Icon/Tosca/Return" stroke="none" stroke-width="1" fill="none" fill-rule="evenodd">
        <g id="Icon/Tosca/Returns" transform="translate(7.000000, 7.000000)">
            <path d="M32.683894,24.103668 L32.568274,24.103668 L22.821414,29.730508 L11.425794,23.153328 L11.425794,18.655428 L22.037454,12.547308 L22.095734,12.448608 L22.095734,9.676548 L22.039334,9.575968 L21.923714,9.575968 L9.453674,16.752868 C9.045714,16.986928 8.794734,17.424028 8.794734,17.893088 L8.794734,29.903468 C8.794734,30.373468 9.045714,30.810568 9.451794,31.044628 L21.925594,38.150088 L21.981994,38.166068 L22.039334,38.150088 L22.095734,38.051388 L22.095734,35.285908 L22.037454,35.187208 L11.425794,29.143008 L11.425794,26.191408 L22.164354,32.390708 C22.561974,32.620068 23.079914,32.620068 23.478474,32.390708 L32.683894,27.075948 L32.741234,26.977248 L32.741234,24.202368 L32.683894,24.103668 Z" id="Fill-1" fill="#7FD2F5"></path>
            <path d="M36.19047,16.753056 L23.67343,9.521636 L23.55875,9.521636 L23.50047,9.620336 L23.50047,12.397096 L23.55875,12.495796 L32.82903,17.852856 L22.82085,23.629156 L14.28377,18.702616 L14.17003,18.702616 L12.89445,19.435816 L12.83523,19.537336 L12.83523,20.839236 L12.89257,20.939816 L22.16379,26.289356 C22.56235,26.518716 23.08029,26.518716 23.47885,26.289356 L34.21647,20.091936 L34.21647,29.144136 L23.55875,35.254136 L23.50047,35.354716 L23.50047,38.122076 L23.55875,38.221716 L23.61609,38.237696 L23.67343,38.221716 L36.19047,31.044816 C36.59749,30.810756 36.84753,30.373656 36.84753,29.904596 L36.84753,17.893276 C36.84753,17.424216 36.59561,16.987116 36.19047,16.753056" id="Fill-3" fill="#F4811F"></path>
            <g id="Group-7" transform="translate(0.000000, 6.225808)">
                <mask id="mask-2" fill="white">
                    <use xlink:href="#path-1"></use>
                </mask>
                <g id="Clip-6"></g>
                <path d="M33.746846,36.806358 L33.704546,36.761238 L33.686686,36.743378 C33.265566,36.295938 33.008946,35.720658 32.935626,35.126578 C25.196606,39.568078 15.135786,38.493658 8.534166,31.890158 C1.220966,24.578838 0.683286,13.026238 6.908906,5.085118 L7.081866,8.034838 L7.118526,8.111918 L7.203126,8.141058 L9.499546,8.005698 L9.607646,7.885378 L9.272066,2.108138 C9.253266,1.774438 9.099106,1.457658 8.850006,1.236758 C8.599966,1.014918 8.268146,0.898358 7.935386,0.917158 L2.156266,1.254618 L2.079186,1.293158 L2.049106,1.376818 L2.183526,3.674178 L2.223946,3.754078 L2.304786,3.784158 L4.722466,3.640338 C-2.169614,12.601358 -1.520074,25.534818 6.683306,33.739138 C14.190146,41.245978 25.656266,42.422858 34.417066,37.287638 C34.174546,37.156978 33.943306,37.002818 33.746846,36.806358" id="Fill-5" fill="#F4811F" mask="url(#mask-2)"></path>
            </g>
            <g id="Group-10" transform="translate(8.460000, 0.585808)">
                <mask id="mask-4" fill="white">
                    <use xlink:href="#path-3"></use>
                </mask>
                <g id="Clip-9"></g>
                <path d="M33.185102,41.740888 L33.250902,39.439768 L33.219882,39.357048 L33.142802,39.321328 L30.690342,39.248008 C39.478402,30.321768 39.437982,15.911568 30.565322,7.037968 C22.353482,-1.173872 9.404042,-1.816832 0.443022,5.096868 C0.813382,5.219068 1.163062,5.410828 1.456342,5.674028 L1.579482,5.788708 C1.915062,6.124288 2.148182,6.535068 2.284482,6.974048 C10.212442,1.053928 21.519702,1.689368 28.716342,8.886008 C36.614222,16.783888 36.614222,29.632748 28.716342,37.530628 L28.670282,37.587028 L28.758642,34.665508 L28.727622,34.584668 L28.646782,34.548008 L26.349422,34.479388 L26.230042,34.589368 L26.054262,40.374128 C26.042982,40.708768 26.169882,41.037768 26.399242,41.281228 C26.624842,41.522808 26.948202,41.668508 27.282842,41.677908 L33.065722,41.852748 L33.146562,41.821728 L33.185102,41.740888 Z" id="Fill-8" fill="#7FD2F5" mask="url(#mask-4)"></path>
            </g>
        </g>
    </g>
</svg>