<?xml version="1.0" encoding="UTF-8"?>
<svg width="60px" height="60px" viewBox="0 0 60 60" version="1.1" xmlns="http://www.w3.org/2000/svg" xmlns:xlink="http://www.w3.org/1999/xlink">
    <!-- Generator: Sketch 52.4 (67378) - http://www.bohemiancoding.com/sketch -->
    <title>Icon/Tosca/Van</title>
    <desc>Created with Sketch.</desc>
    <defs>
        <polygon id="path-1" points="0.000327272727 0.254975806 59.2330909 0.254975806 59.2330909 33.75 0.000327272727 33.75"></polygon>
    </defs>
    <g id="Icon/Tosca/Van" stroke="none" stroke-width="1" fill="none" fill-rule="evenodd">
        <g transform="translate(0.000000, 13.000000)">
            <path d="M29.5665301,25.7673473 L29.5665301,24.1666568 L21.6034074,24.1666568 C20.7105887,24.1666568 19.9859823,24.8837662 19.9859823,25.7673473 C19.9859823,27.9368166 18.1981885,29.7029118 16.0017253,29.7029118 C13.8031055,29.7029118 12.0153116,27.9368166 12.0153116,25.7673473 C12.0153116,24.8837662 11.2907052,24.1666568 10.3978866,24.1666568 L3.23485012,24.1666568 L3.23485012,18.3870968 L0,18.3870968 L0,25.7673473 C0,26.6509285 0.724606427,27.3680379 1.61742506,27.3680379 L8.96376968,27.3680379 C9.70023722,30.536338 12.5770973,32.9032258 16.0017253,32.9032258 C19.4263532,32.9032258 22.3010567,30.536338 23.0375243,27.3680379 L30,27.3680379 C29.7325857,26.8910321 29.5665301,26.3510658 29.5665301,25.7673473" id="Fill-1" fill="#7FD2F5"></path>
            <g id="Group-5">
                <mask id="mask-2" fill="white">
                    <use xlink:href="#path-1"></use>
                </mask>
                <g id="Clip-4"></g>
                <path d="M46.0977818,33.7502177 C42.6177818,33.7502177 39.6930545,31.3365484 38.9174182,28.1030806 L33.3886909,28.1030806 C32.4385091,28.1030806 31.6726909,27.3333629 31.6726909,26.3872742 L31.6726909,3.68114516 L3.43341818,3.68114516 L3.43341818,17.1800565 L0.000327272727,17.1800565 L0.000327272727,1.96969355 C0.000327272727,1.02251613 0.767236364,0.254975806 1.71523636,0.254975806 L33.3886909,0.254975806 C34.3366909,0.254975806 35.1057818,1.02251613 35.1057818,1.96969355 L35.1057818,24.6769113 L40.4326909,24.6769113 C41.3806909,24.6769113 42.1476,25.4422742 42.1476,26.3872742 C42.1476,28.5581613 43.9203273,30.3251371 46.0977818,30.3251371 C48.2752364,30.3251371 50.0479636,28.5581613 50.0479636,26.3872742 C50.0479636,25.4422742 50.8170545,24.6769113 51.7639636,24.6769113 L55.8014182,24.6769113 L55.8014182,17.4522339 L50.4843273,10.5193306 L40.2614182,10.5193306 L40.2614182,17.1800565 L36.8294182,17.1800565 L36.8294182,8.80570161 C36.8294182,7.8596129 37.5985091,7.09207258 38.5465091,7.09207258 L51.3330545,7.09207258 C51.8676,7.09207258 52.3726909,7.34029839 52.6966909,7.76380645 L58.8821455,15.8311452 C59.1101455,16.1294516 59.2334182,16.4952581 59.2334182,16.8730403 L59.2334182,26.3872742 C59.2334182,27.3333629 58.4665091,28.1030806 57.5185091,28.1030806 L53.2803273,28.1030806 C52.5025091,31.3365484 49.5766909,33.7502177 46.0977818,33.7502177" id="Fill-3" fill="#F4811F" mask="url(#mask-2)"></path>
            </g>
        </g>
    </g>
</svg>